<?xml version="1.0" standalone="no"?><!DOCTYPE svg PUBLIC "-//W3C//DTD SVG 1.1//EN" "http://www.w3.org/Graphics/SVG/1.1/DTD/svg11.dtd"><svg t="1662111201756" class="icon" viewBox="0 0 1024 1024" version="1.1" xmlns="http://www.w3.org/2000/svg" p-id="8926" width="400" height="400" xmlns:xlink="http://www.w3.org/1999/xlink"><path d="M153.114828 742.969599a421.888 421.888 0 1 0 717.785635-443.555769 421.888 421.888 0 1 0-717.785635 443.555769Z" fill="#6FE0FF" p-id="8927" data-spm-anchor-id="a313x.7781069.0.i16" class=""></path><path d="M358.8608 914.1248a419.37408 419.37408 0 0 0 153.1392 28.8768c232.6016 0 421.888-189.2352 421.888-421.888 0-24.0128-2.1504-47.5648-5.9904-70.5024-28.16-5.12-57.1392-7.7824-86.784-7.7824-262.7584 0-476.3648 209.9712-482.2528 471.296z" fill="#55D7FF" p-id="8928" data-spm-anchor-id="a313x.7781069.0.i15" class="selected"></path><path d="M172.6976 520.4992c237.8752 0 435.5072-172.1856 475.136-398.6432a419.8656 419.8656 0 0 0-135.7824-22.5792c-230.0416 0-417.536 185.088-421.6832 414.208 26.7264 4.5568 54.2208 7.0144 82.3296 7.0144z" fill="#9AEFFF" p-id="8929" data-spm-anchor-id="a313x.7781069.0.i17" class="selected"></path><path d="M743.168 421.1712c-1.3824-0.768-136.7552-79.6672-202.9056-161.3312a29.65504 29.65504 0 0 0-23.808-11.008c-9.216 0.256-17.8176 4.7616-23.2448 12.1856-67.7376 92.928-197.376 158.6176-198.656 159.2832a29.70112 29.70112 0 0 0 13.312 56.2688c4.4544 0 9.0112-1.024 13.2608-3.1232 5.2736-2.6624 119.0912-60.2112 197.2224-148.992 75.9808 78.7456 189.7984 145.0496 195.1232 148.1216 14.1824 8.192 32.3584 3.3792 40.5504-10.8032 8.1408-14.2336 3.328-32.4096-10.8544-40.6016z" fill="#FFFFFF" p-id="8930"></path><path d="M708.4032 677.632h-148.736v-105.2672h119.3984c16.384 0 29.696-13.312 29.696-29.696 0-16.384-13.312-29.696-29.696-29.696h-119.3984V424.0896c0-16.384-13.312-29.696-29.696-29.696s-29.696 13.312-29.696 29.696v253.4912H426.1376v-178.688c0-16.384-13.312-29.696-29.696-29.696-16.384 0-29.696 13.312-29.696 29.696v178.688h-42.8544c-16.384 0-29.696 13.312-29.696 29.696 0 16.384 13.312 29.696 29.696 29.696h384.512c16.384 0 29.696-13.312 29.696-29.696 0-16.384-13.2608-29.6448-29.696-29.6448z" fill="#FFFFFF" p-id="8931"></path></svg>